<?xml version="1.0" encoding="UTF-8"?>
<svg id="Layer_2" data-name="Layer 2" xmlns="http://www.w3.org/2000/svg" viewBox="0 0 747.88 272.27">
  <defs>
    <style>
      .cls-1 {
        fill: #006ac6;
      }

      .cls-2 {
        fill: #001872;
      }
    </style>
  </defs>
  <g id="Layer_1-2" data-name="Layer 1">
    <g>
      <g>
        <g>
          <path class="cls-2" d="M340.03,155.51v-73.25h18.2v26.76h39v16.52h-39v29.97c0,10.09,5.2,14.07,12.69,14.07s12.69-3.82,12.69-14.07v-1.99h18.2v1.99c0,20.95-12.54,31.04-30.89,31.04s-30.89-10.09-30.89-31.04Z"/>
          <path class="cls-2" d="M413.43,140.67c0-22.79,13.46-33.64,33.18-33.64s33.03,10.86,33.03,33.95v.46h-18.05v-.77c0-12.23-6.12-16.67-14.99-16.67s-14.99,4.43-14.99,16.67v43.89h-18.2v-43.89Z"/>
          <path class="cls-2" d="M486.38,147.56c0-24.01,16.82-40.53,40.83-40.53s40.22,16.06,40.22,40.37v37.16h-16.67v-14.83c-4.59,11.16-14.83,16.82-26.76,16.82-18.35,0-37.62-13.15-37.62-39ZM549.23,146.79c0-13.31-8.87-22.79-22.17-22.79s-22.33,9.48-22.33,22.79,9.02,22.78,22.33,22.78,22.17-9.48,22.17-22.78Z"/>
          <path class="cls-2" d="M579.36,146.79c0-22.94,16.82-39.76,40.68-39.76,20.49,0,35.48,12.39,39.15,30.28h-18.35c-3.21-8.11-10.86-13.3-20.8-13.3-13.3,0-22.33,9.48-22.33,22.79s9.02,22.78,22.33,22.78c9.94,0,17.59-5.2,20.8-13.3h18.35c-3.67,17.89-18.66,30.28-39.15,30.28-23.86,0-40.68-16.82-40.68-39.76Z"/>
          <path class="cls-2" d="M668.05,146.79c0-22.94,16.82-39.76,40.68-39.76,20.49,0,35.48,12.39,39.15,30.28h-18.35c-3.21-8.11-10.86-13.3-20.8-13.3-13.31,0-22.33,9.48-22.33,22.79s9.02,22.78,22.33,22.78c9.94,0,17.59-5.2,20.8-13.3h18.35c-3.67,17.89-18.66,30.28-39.15,30.28-23.86,0-40.68-16.82-40.68-39.76Z"/>
        </g>
        <circle class="cls-2" cx="393.7" cy="117.15" r="11.44"/>
      </g>
      <g>
        <g>
          <path class="cls-1" d="M257.82,214.81h-.02s-102.03-75.11-102.03-75.11c-3.98-2.93-4.83-8.52-1.91-12.5l31.24-42.63c2.92-3.99,8.52-4.85,12.51-1.93,3.99,2.92,4.85,8.52,1.93,12.51l-25.96,35.43,94.84,69.8c3.98,2.93,4.83,8.53,1.9,12.52-2.93,3.98-8.52,4.83-12.5,1.91Z"/>
          <g>
            <circle class="cls-1" cx="194.93" cy="86.67" r="13.16"/>
            <path class="cls-1" d="M186.15,98.65c-6.61-4.84-8.04-14.16-3.2-20.76,4.84-6.61,14.16-8.04,20.76-3.2,6.61,4.84,8.04,14.16,3.2,20.76-4.84,6.61-14.16,8.04-20.76,3.2ZM201.71,77.42c-5.1-3.74-12.28-2.63-16.02,2.47-3.74,5.1-2.63,12.28,2.47,16.02,5.1,3.74,12.28,2.63,16.02-2.47,3.74-5.1,2.63-12.28-2.47-16.02Z"/>
          </g>
        </g>
        <g>
          <path class="cls-1" d="M126.81,118.21l-42.63-31.24c-3.99-2.92-4.85-8.52-1.93-12.51,2.92-3.99,8.52-4.85,12.51-1.93l35.43,25.96L200,3.65c2.93-3.98,8.52-4.83,12.5-1.91h.02c3.98,2.94,4.83,8.55,1.9,12.53l-75.1,102.03c-2.93,3.98-8.52,4.83-12.5,1.91Z"/>
          <g>
            <circle class="cls-1" cx="86.28" cy="77.13" r="13.16"/>
            <path class="cls-1" d="M77.5,89.11c-6.61-4.84-8.04-14.16-3.2-20.76,4.84-6.61,14.16-8.04,20.76-3.2,6.61,4.84,8.04,14.16,3.2,20.76-4.84,6.61-14.16,8.04-20.76,3.2ZM93.06,67.89c-5.1-3.74-12.28-2.63-16.02,2.47-3.74,5.1-2.63,12.28,2.47,16.02,5.1,3.74,12.28,2.63,16.02-2.47,3.74-5.1,2.63-12.28-2.47-16.02Z"/>
          </g>
        </g>
        <g>
          <path class="cls-1" d="M59.81,270.54h-.02c-3.98-2.94-4.83-8.55-1.9-12.53l75.1-102.03c2.93-3.98,8.52-4.83,12.5-1.91l42.63,31.24c3.99,2.92,4.85,8.52,1.93,12.51-2.92,3.99-8.52,4.85-12.51,1.93l-35.43-25.96-69.8,94.84c-2.93,3.98-8.52,4.83-12.5,1.91Z"/>
          <g>
            <circle class="cls-1" cx="186.03" cy="195.14" r="13.16"/>
            <path class="cls-1" d="M177.25,207.12c-6.61-4.84-8.04-14.16-3.2-20.76,4.84-6.61,14.16-8.04,20.76-3.2,6.61,4.84,8.04,14.16,3.2,20.76-4.84,6.61-14.16,8.04-20.76,3.2ZM192.8,185.89c-5.1-3.74-12.28-2.63-16.02,2.47-3.74,5.1-2.63,12.28,2.47,16.02,5.1,3.74,12.28,2.63,16.02-2.47,3.74-5.1,2.63-12.28-2.47-16.02Z"/>
          </g>
        </g>
        <g>
          <path class="cls-1" d="M74.45,189.76c-3.99-2.92-4.85-8.52-1.93-12.51l25.96-35.43L3.65,72.01c-3.98-2.93-4.83-8.53-1.9-12.52,2.93-3.98,8.52-4.83,12.5-1.91h.02s102.03,75.11,102.03,75.11c3.98,2.93,4.83,8.52,1.91,12.5l-31.24,42.63c-2.92,3.99-8.52,4.85-12.51,1.93Z"/>
          <g>
            <circle class="cls-1" cx="77.13" cy="185.73" r="13.16"/>
            <path class="cls-1" d="M68.35,197.71c-6.61-4.84-8.04-14.16-3.2-20.77,4.84-6.61,14.16-8.04,20.76-3.2,6.61,4.84,8.04,14.16,3.2,20.77-4.84,6.61-14.16,8.04-20.76,3.2ZM83.91,176.48c-5.1-3.74-12.28-2.63-16.02,2.47-3.74,5.1-2.63,12.28,2.47,16.02,5.1,3.74,12.28,2.63,16.02-2.47,3.74-5.1,2.63-12.28-2.47-16.02Z"/>
          </g>
        </g>
      </g>
    </g>
  </g>
</svg>