<?xml version="1.0" encoding="UTF-8"?>
<svg id="Layer_2" data-name="Layer 2" xmlns="http://www.w3.org/2000/svg" viewBox="0 0 2779.8 5160.14">
  <defs>
    <style>
      .cls-1 {
        fill: none;
        stroke: #006ac6;
        stroke-miterlimit: 10;
      }
    </style>
  </defs>
  <g id="Layer_1-2" data-name="Layer 1">
    <g>
      <rect class="cls-1" x=".5" y=".5" width="2778.8" height="2579.51"/>
      <line class="cls-1" x1="107.38" y1=".5" x2="107.38" y2="2580.01"/>
      <line class="cls-1" x1="214.25" y1=".5" x2="214.25" y2="2580.01"/>
      <line class="cls-1" x1="321.13" y1=".5" x2="321.13" y2="2580.01"/>
      <line class="cls-1" x1="428.01" y1=".5" x2="428.01" y2="2580.01"/>
      <line class="cls-1" x1="534.88" y1=".5" x2="534.88" y2="2580.01"/>
      <line class="cls-1" x1="641.76" y1=".5" x2="641.76" y2="2580.01"/>
      <line class="cls-1" x1="748.64" y1=".5" x2="748.64" y2="2580.01"/>
      <line class="cls-1" x1="855.51" y1=".5" x2="855.51" y2="2580.01"/>
      <line class="cls-1" x1="962.39" y1=".5" x2="962.39" y2="2580.01"/>
      <line class="cls-1" x1="1069.27" y1=".5" x2="1069.27" y2="2580.01"/>
      <line class="cls-1" x1="1176.15" y1=".5" x2="1176.15" y2="2580.01"/>
      <line class="cls-1" x1="1283.02" y1=".5" x2="1283.02" y2="2580.01"/>
      <line class="cls-1" x1="1389.9" y1=".5" x2="1389.9" y2="2580.01"/>
      <line class="cls-1" x1="1496.78" y1=".5" x2="1496.78" y2="2580.01"/>
      <line class="cls-1" x1="1603.65" y1=".5" x2="1603.65" y2="2580.01"/>
      <line class="cls-1" x1="1710.53" y1=".5" x2="1710.53" y2="2580.01"/>
      <line class="cls-1" x1="1817.41" y1=".5" x2="1817.41" y2="2580.01"/>
      <line class="cls-1" x1="1924.28" y1=".5" x2="1924.28" y2="2580.01"/>
      <line class="cls-1" x1="2031.16" y1=".5" x2="2031.16" y2="2580.01"/>
      <line class="cls-1" x1="2138.04" y1=".5" x2="2138.04" y2="2580.01"/>
      <line class="cls-1" x1="2244.91" y1=".5" x2="2244.91" y2="2580.01"/>
      <line class="cls-1" x1="2351.79" y1=".5" x2="2351.79" y2="2580.01"/>
      <line class="cls-1" x1="2458.67" y1=".5" x2="2458.67" y2="2580.01"/>
      <line class="cls-1" x1="2565.54" y1=".5" x2="2565.54" y2="2580.01"/>
      <line class="cls-1" x1="2672.42" y1=".5" x2="2672.42" y2="2580.01"/>
      <line class="cls-1" x1="2779.3" y1="2480.8" x2=".5" y2="2480.8"/>
      <line class="cls-1" x1="2779.3" y1="2381.59" x2=".5" y2="2381.59"/>
      <line class="cls-1" x1="2779.3" y1="2282.38" x2=".5" y2="2282.38"/>
      <line class="cls-1" x1="2779.3" y1="2183.16" x2=".5" y2="2183.16"/>
      <line class="cls-1" x1="2779.3" y1="2083.95" x2=".5" y2="2083.95"/>
      <line class="cls-1" x1="2779.3" y1="1984.74" x2=".5" y2="1984.74"/>
      <line class="cls-1" x1="2779.3" y1="1885.53" x2=".5" y2="1885.53"/>
      <line class="cls-1" x1="2779.3" y1="1786.32" x2=".5" y2="1786.32"/>
      <line class="cls-1" x1="2779.3" y1="1687.1" x2=".5" y2="1687.1"/>
      <line class="cls-1" x1="2779.3" y1="1587.89" x2=".5" y2="1587.89"/>
      <line class="cls-1" x1="2779.3" y1="1488.68" x2=".5" y2="1488.68"/>
      <line class="cls-1" x1="2779.3" y1="1389.47" x2=".5" y2="1389.47"/>
      <line class="cls-1" x1="2779.3" y1="1290.26" x2=".5" y2="1290.26"/>
      <line class="cls-1" x1="2779.3" y1="1191.04" x2=".5" y2="1191.04"/>
      <line class="cls-1" x1="2779.3" y1="1091.83" x2=".5" y2="1091.83"/>
      <line class="cls-1" x1="2779.3" y1="992.62" x2=".5" y2="992.62"/>
      <line class="cls-1" x1="2779.3" y1="893.41" x2=".5" y2="893.41"/>
      <line class="cls-1" x1="2779.3" y1="794.2" x2=".5" y2="794.2"/>
      <line class="cls-1" x1="2779.3" y1="694.98" x2=".5" y2="694.98"/>
      <line class="cls-1" x1="2779.3" y1="595.77" x2=".5" y2="595.77"/>
      <line class="cls-1" x1="2779.3" y1="496.56" x2=".5" y2="496.56"/>
      <line class="cls-1" x1="2779.3" y1="397.35" x2=".5" y2="397.35"/>
      <line class="cls-1" x1="2779.3" y1="298.14" x2=".5" y2="298.14"/>
      <line class="cls-1" x1="2779.3" y1="198.92" x2=".5" y2="198.92"/>
      <line class="cls-1" x1="2779.3" y1="99.71" x2=".5" y2="99.71"/>
    </g>
    <g>
      <rect class="cls-1" x=".5" y="2580.13" width="2778.8" height="2579.51"/>
      <line class="cls-1" x1="107.38" y1="2580.13" x2="107.38" y2="5159.64"/>
      <line class="cls-1" x1="214.25" y1="2580.13" x2="214.25" y2="5159.64"/>
      <line class="cls-1" x1="321.13" y1="2580.13" x2="321.13" y2="5159.64"/>
      <line class="cls-1" x1="428.01" y1="2580.13" x2="428.01" y2="5159.64"/>
      <line class="cls-1" x1="534.88" y1="2580.13" x2="534.88" y2="5159.64"/>
      <line class="cls-1" x1="641.76" y1="2580.13" x2="641.76" y2="5159.64"/>
      <line class="cls-1" x1="748.64" y1="2580.13" x2="748.64" y2="5159.64"/>
      <line class="cls-1" x1="855.51" y1="2580.13" x2="855.51" y2="5159.64"/>
      <line class="cls-1" x1="962.39" y1="2580.13" x2="962.39" y2="5159.64"/>
      <line class="cls-1" x1="1069.27" y1="2580.13" x2="1069.27" y2="5159.64"/>
      <line class="cls-1" x1="1176.15" y1="2580.13" x2="1176.15" y2="5159.64"/>
      <line class="cls-1" x1="1283.02" y1="2580.13" x2="1283.02" y2="5159.64"/>
      <line class="cls-1" x1="1389.9" y1="2580.13" x2="1389.9" y2="5159.64"/>
      <line class="cls-1" x1="1496.78" y1="2580.13" x2="1496.78" y2="5159.64"/>
      <line class="cls-1" x1="1603.65" y1="2580.13" x2="1603.65" y2="5159.64"/>
      <line class="cls-1" x1="1710.53" y1="2580.13" x2="1710.53" y2="5159.64"/>
      <line class="cls-1" x1="1817.41" y1="2580.13" x2="1817.41" y2="5159.64"/>
      <line class="cls-1" x1="1924.28" y1="2580.13" x2="1924.28" y2="5159.64"/>
      <line class="cls-1" x1="2031.16" y1="2580.13" x2="2031.16" y2="5159.64"/>
      <line class="cls-1" x1="2138.04" y1="2580.13" x2="2138.04" y2="5159.64"/>
      <line class="cls-1" x1="2244.91" y1="2580.13" x2="2244.91" y2="5159.64"/>
      <line class="cls-1" x1="2351.79" y1="2580.13" x2="2351.79" y2="5159.64"/>
      <line class="cls-1" x1="2458.67" y1="2580.13" x2="2458.67" y2="5159.64"/>
      <line class="cls-1" x1="2565.54" y1="2580.13" x2="2565.54" y2="5159.64"/>
      <line class="cls-1" x1="2672.42" y1="2580.13" x2="2672.42" y2="5159.64"/>
      <line class="cls-1" x1="2779.3" y1="5060.43" x2=".5" y2="5060.43"/>
      <line class="cls-1" x1="2779.3" y1="4961.22" x2=".5" y2="4961.22"/>
      <line class="cls-1" x1="2779.3" y1="4862" x2=".5" y2="4862"/>
      <line class="cls-1" x1="2779.3" y1="4762.79" x2=".5" y2="4762.79"/>
      <line class="cls-1" x1="2779.3" y1="4663.58" x2=".5" y2="4663.58"/>
      <line class="cls-1" x1="2779.3" y1="4564.37" x2=".5" y2="4564.37"/>
      <line class="cls-1" x1="2779.3" y1="4465.16" x2=".5" y2="4465.16"/>
      <line class="cls-1" x1="2779.3" y1="4365.94" x2=".5" y2="4365.94"/>
      <line class="cls-1" x1="2779.3" y1="4266.73" x2=".5" y2="4266.73"/>
      <line class="cls-1" x1="2779.3" y1="4167.52" x2=".5" y2="4167.52"/>
      <line class="cls-1" x1="2779.3" y1="4068.31" x2=".5" y2="4068.31"/>
      <line class="cls-1" x1="2779.3" y1="3969.1" x2=".5" y2="3969.1"/>
      <line class="cls-1" x1="2779.3" y1="3869.88" x2=".5" y2="3869.88"/>
      <line class="cls-1" x1="2779.3" y1="3770.67" x2=".5" y2="3770.67"/>
      <line class="cls-1" x1="2779.3" y1="3671.46" x2=".5" y2="3671.46"/>
      <line class="cls-1" x1="2779.3" y1="3572.25" x2=".5" y2="3572.25"/>
      <line class="cls-1" x1="2779.3" y1="3473.04" x2=".5" y2="3473.04"/>
      <line class="cls-1" x1="2779.3" y1="3373.82" x2=".5" y2="3373.82"/>
      <line class="cls-1" x1="2779.3" y1="3274.61" x2=".5" y2="3274.61"/>
      <line class="cls-1" x1="2779.3" y1="3175.4" x2=".5" y2="3175.4"/>
      <line class="cls-1" x1="2779.3" y1="3076.19" x2=".5" y2="3076.19"/>
      <line class="cls-1" x1="2779.3" y1="2976.98" x2=".5" y2="2976.98"/>
      <line class="cls-1" x1="2779.3" y1="2877.76" x2=".5" y2="2877.76"/>
      <line class="cls-1" x1="2779.3" y1="2778.55" x2=".5" y2="2778.55"/>
      <line class="cls-1" x1="2779.3" y1="2679.34" x2=".5" y2="2679.34"/>
    </g>
  </g>
</svg>