<?xml version="1.0" encoding="UTF-8"?>
<svg id="Layer_2" data-name="Layer 2" xmlns="http://www.w3.org/2000/svg" viewBox="0 0 119.72 123.62">
  <defs>
    <style>
      .cls-1 {
        fill: #383839;
        stroke-width: 7px;
      }

      .cls-1, .cls-2 {
        stroke-miterlimit: 10;
      }

      .cls-1, .cls-2, .cls-3 {
        stroke: #5d5d5d;
      }

      .cls-2, .cls-3 {
        fill: #5d5d5d;
        stroke-width: 2px;
      }

      .cls-3 {
        stroke-linejoin: round;
      }
    </style>
  </defs>
  <g id="Layer_1-2" data-name="Layer 1">
    <path class="cls-3" d="M39.95,76.68h-16.02c-.97,0-1.88.38-2.57,1.06-.68.68-1.06,1.61-1.06,2.56v9.56c0,.55.45,1,1,1h21.27c.55,0,1-.45,1-1v-9.56c0-.96-.39-1.89-1.06-2.56-.68-.69-1.6-1.07-2.57-1.07h0ZM67.87,76.68h-16.02c-.96,0-1.89.39-2.56,1.06-.68.67-1.07,1.61-1.07,2.57v9.56c0,.55.45,1,1,1h21.27c.55,0,1-.45,1-1v-9.56c0-.96-.39-1.89-1.06-2.56-.68-.69-1.59-1.07-2.56-1.07h0ZM98.36,77.74c-.68-.68-1.61-1.07-2.57-1.07h-16.02c-.95,0-1.89.39-2.56,1.06-.68.67-1.07,1.61-1.07,2.57v9.56c0,.55.45,1,1,1h21.27c.55,0,1-.45,1-1v-9.56c0-.96-.39-1.89-1.06-2.56h0ZM31.94,73.03c4.59,0,8.32-3.73,8.32-8.31s-3.73-8.32-8.32-8.32-8.31,3.73-8.31,8.32c0,4.58,3.73,8.31,8.31,8.31ZM31.94,58.4c3.48,0,6.32,2.83,6.32,6.32s-2.83,6.31-6.32,6.31-6.31-2.83-6.31-6.31c0-3.48,2.84-6.32,6.31-6.32ZM51.54,64.72c0,4.58,3.73,8.31,8.32,8.31s8.31-3.73,8.31-8.31-3.73-8.32-8.31-8.32-8.32,3.73-8.32,8.32ZM59.86,58.4c3.48,0,6.31,2.83,6.31,6.32s-2.83,6.31-6.31,6.31-6.32-2.83-6.32-6.31,2.84-6.32,6.32-6.32ZM79.47,64.72c0,4.58,3.73,8.31,8.31,8.31s8.31-3.73,8.31-8.31-3.73-8.32-8.31-8.32-8.31,3.73-8.31,8.32ZM66.53,27.77h-3.21v-3.21c0-.55-.45-1-1-1h-4.84c-.55,0-1,.45-1,1v3.21h-3.2c-.55,0-1,.45-1,1v4.84c0,.55.45,1,1,1h3.21v3.21c0,.55.45,1,1,1h4.84c.55,0,1-.45,1-1v-3.21h3.21c.55,0,1-.45,1-1v-4.84c0-.55-.45-1-1-1ZM87.78,58.4c3.48,0,6.31,2.83,6.31,6.32s-2.83,6.31-6.31,6.31-6.31-2.83-6.31-6.31,2.83-6.32,6.31-6.32ZM59.91,16.18c-8.27,0-15.01,6.73-15.01,15.01s6.73,15.01,15.01,15.01,15.01-6.73,15.01-15.01c0-8.27-6.73-15.01-15.01-15.01ZM59.91,44.2c-7.17,0-13.01-5.84-13.01-13.01s5.84-13.01,13.01-13.01,13.01,5.84,13.01,13.01c0,7.17-5.84,13.01-13.01,13.01ZM32.6,51.76v-21.28c0-.55.45-1,1-1h7.31c.55,0,1,.45,1,1s-.45,1-1,1h-6.31v20.28c0,.55-.45,1-1,1s-1-.45-1-1h0ZM78.33,30.48c0-.55.45-1,1-1h7.31c.55,0,1,.45,1,1v21.28c0,.55-.45,1-1,1s-1-.45-1-1v-20.28h-6.31c-.55,0-1-.45-1-1ZM60.12,53.16c-.55,0-1-.49-1-1.1v-5.85c0-.61.45-1.1,1-1.1s1,.49,1,1.1v5.85c0,.61-.45,1.1-1,1.1Z"/>
    <path class="cls-2" d="M59.86,1C27.4,1,1,27.4,1,59.86c0,26.82,18.04,49.5,42.62,56.56.7-.13,1.22-.7,1.3-1.37.09-.75-.39-1.47-1.15-1.7-22.98-6.92-39.78-28.28-39.78-53.49C4,29.06,29.06,4,59.86,4s55.86,25.06,55.86,55.86c0,25.36-16.99,46.81-40.17,53.6-.85,0-1.55.7-1.56,1.55,0,.86.7,1.57,1.56,1.57,25.78-8.28,43.17-31.54,43.17-56.72C118.72,27.4,92.32,1,59.86,1Z"/>
    <circle class="cls-1" cx="59.86" cy="116.19" r="3.93"/>
  </g>
</svg>