<?xml version="1.0" encoding="UTF-8"?>
<svg id="Layer_2" data-name="Layer 2" xmlns="http://www.w3.org/2000/svg" viewBox="0 0 119.72 124.59">
  <defs>
    <style>
      .cls-1 {
        fill: #383839;
        stroke-width: 7px;
      }

      .cls-1, .cls-2 {
        stroke-miterlimit: 10;
      }

      .cls-1, .cls-2, .cls-3 {
        stroke: #5d5d5d;
      }

      .cls-4, .cls-2, .cls-3 {
        fill: #5d5d5d;
      }

      .cls-2, .cls-3 {
        stroke-width: 2px;
      }

      .cls-3 {
        stroke-linecap: round;
        stroke-linejoin: round;
      }
    </style>
  </defs>
  <g id="Layer_1-2" data-name="Layer 1">
    <g>
      <path class="cls-3" d="M48.71,54.13h-7.93s0,0,0,0c-.35,0-.69.14-.94.39s-.39.59-.38.94v12.86c0,.35.14.69.38.94s.59.39.94.39h7.92c.73,0,1.33-.6,1.32-1.33v-12.86c0-.73-.59-1.33-1.32-1.33ZM47.37,66.99h-5.26v-10.21h5.26v10.21Z"/>
      <path class="cls-3" d="M87.45,97.67c0-.86,0-1.71,0-2.57v-58.49h1.99c.73,0,1.33-.59,1.33-1.32v-10.24c0-.73-.6-1.33-1.33-1.32h-13.35c-2.57-6.43-8.87-10.98-16.22-10.98h0c-7.34,0-13.65,4.55-16.22,10.98h-13.35c-.73,0-1.33.59-1.33,1.32v10.24c0,.73.6,1.33,1.33,1.32h1.99v58.49c0,.88,0,1.77,0,2.65,18.39-.03,36.78-.06,55.17-.09ZM58.53,95.11h-10.63v-14.88h10.63v14.88ZM71.82,95.11h-10.64v-14.88h10.64v14.88ZM76.89,26.39h11.21v7.57h-11.21c.27-1.22.41-2.48.41-3.78s-.15-2.57-.41-3.78ZM45.75,25.7c.08-.14.13-.29.15-.44,2.03-5.74,7.5-9.85,13.96-9.85h0c6.49,0,11.99,4.14,13.99,9.93h0c.02.09.05.19.09.27.46,1.44.72,2.97.72,4.57s-.25,3.09-.7,4.51c-.07.13-.11.27-.13.4-2.02,5.75-7.5,9.86-13.96,9.86s-11.93-4.1-13.96-9.85c-.02-.16-.07-.31-.15-.45-.45-1.41-.69-2.91-.69-4.47s.24-3.07.69-4.47ZM59.85,47.6c7.34,0,13.65-4.55,16.22-10.98h8.71v58.49s-10.3,0-10.3,0v-14.88h1.31c.35,0,.69-.14.94-.39.25-.25.38-.59.38-.94,0-.73-.59-1.32-1.32-1.33h-31.87c-.73,0-1.32.6-1.32,1.33,0,.35.14.69.38.94.25.25.58.39.94.4h1.31v14.88h-10.31v-58.49s8.71,0,8.71,0c2.57,6.43,8.87,10.98,16.22,10.98ZM31.6,33.96v-7.57h11.21c-.27,1.22-.42,2.48-.42,3.78s.15,2.56.42,3.78h-11.21Z"/>
      <path class="cls-3" d="M63.82,54.13h-7.93s0,0,0,0c-.73,0-1.33.6-1.33,1.33v12.86c0,.73.59,1.33,1.33,1.33h7.92c.73,0,1.33-.6,1.32-1.33v-12.86c0-.73-.59-1.33-1.32-1.33ZM62.48,66.99h-5.26v-10.21h5.26v10.21Z"/>
      <path class="cls-3" d="M53.52,33.63h3.04v3.03c0,.27.1.52.29.71s.44.29.71.29h5.02c.27,0,.52-.1.71-.29s.29-.44.29-.71v-3.03h3.04c.27,0,.52-.1.71-.29s.29-.44.29-.71v-5.01c0-.27-.1-.52-.29-.71-.19-.19-.44-.29-.71-.29h-3.04v-3.03c0-.26-.1-.52-.29-.71s-.44-.29-.71-.29h-5.02c-.27,0-.52.1-.71.29s-.29.44-.29.71v3.03h-3.04c-.27,0-.52.1-.71.29-.19.19-.29.44-.29.71v5.01c0,.27.1.52.29.71s.44.29.71.29ZM54.51,28.61h3.05c.55,0,.99-.45.99-.99v-3.04s3.04,0,3.04,0v3.04h0c0,.55.44.99.99.99h3.05v3.03h-3.05c-.55,0-.99.44-.99.99v3.04h-3.04v-3.04c0-.55-.44-.99-.99-.99h-3.05v-3.03Z"/>
      <path class="cls-3" d="M78.93,54.13h-7.93s0,0,0,0c-.73,0-1.33.6-1.33,1.33v12.86c0,.73.59,1.33,1.33,1.33h7.92c.73,0,1.33-.6,1.32-1.33v-12.86c0-.73-.59-1.33-1.32-1.33ZM77.59,66.99h-5.26v-10.21h5.26v10.21Z"/>
      <g>
        <path class="cls-4" d="M59.6,26.06c.02,2.95.03,5.9.05,8.85.81-3.12.87-6.37.93-9.59.78.71,1.08,1.78,1.53,2.72.45.95,1.23,1.9,2.28,1.92-3.11,0-6.22,0-9.34,0"/>
        <path class="cls-4" d="M57.1,26.06c.02,2.95.03,5.9.05,8.85,0,1.25.95,2.29,2.17,2.46s2.43-.58,2.74-1.79c.86-3.35.96-6.82,1.02-10.25l-4.27,1.77c.07.07.21.29.31.32-.22-.29-.28-.36-.17-.21.04.06.08.12.12.19.15.26.28.53.4.8.23.52.43,1.05.71,1.54.93,1.56,2.37,2.63,4.21,2.73v-5c-3.11,0-6.22,0-9.34,0-1.31,0-2.56,1.15-2.5,2.5s1.1,2.5,2.5,2.5c3.11,0,6.22,0,9.34,0,1.31,0,2.56-1.15,2.5-2.5-.06-1.42-1.1-2.42-2.5-2.5.69.04.41.05.2.02-.27-.04.52.29.17.07-.06-.03-.11-.07-.17-.11-.16-.11-.08-.05.24.18-.05-.07-.14-.13-.2-.19-.05-.05-.09-.1-.14-.16-.12-.15-.06-.07.18.23-.04-.08-.11-.16-.15-.24-.14-.22-.25-.46-.36-.7-.5-1.1-.93-2.16-1.83-3.02-.73-.7-1.8-.91-2.73-.52s-1.52,1.28-1.54,2.28c-.03,1.58-.05,3.17-.17,4.74-.03.36-.06.73-.1,1.09-.02.21-.05.42-.07.63-.02.19-.01.12.03-.21-.02.12-.03.24-.05.36-.12.78-.28,1.55-.47,2.32l4.91.66c-.02-2.95-.03-5.9-.05-8.85,0-1.31-1.15-2.56-2.5-2.5s-2.51,1.1-2.5,2.5h0Z"/>
      </g>
      <g>
        <path class="cls-4" d="M43.97,58.06v5.58c0,.55,0,1.12.22,1.62.14.32.38.61.67.81.64-2.25.53-4.7-.3-6.88"/>
        <path class="cls-4" d="M41.47,58.06c0,1.59,0,3.19,0,4.78,0,.9-.03,1.81.19,2.7.28,1.16,1.01,1.99,1.94,2.69.62.46,1.56.41,2.22.13.71-.3,1.24-.87,1.45-1.62.74-2.66.67-5.61-.3-8.21-.23-.62-.56-1.15-1.15-1.49-.54-.31-1.33-.45-1.93-.25-1.2.39-2.24,1.76-1.75,3.08.28.76.48,1.54.6,2.35l-.09-.66c.13,1,.14,2,.01,2.99l.09-.66c-.07.52-.18,1.03-.32,1.54l3.67-1.49-.09-.07.51.39c-.12-.1-.23-.21-.33-.34l.39.51c-.09-.13-.17-.26-.24-.4l.25.6c-.09-.22-.14-.43-.18-.66l.09.66c-.13-1.05-.05-2.14-.05-3.2v-3.35c0-1.31-1.15-2.56-2.5-2.5s-2.5,1.1-2.5,2.5h0Z"/>
      </g>
      <g>
        <path class="cls-4" d="M58.81,58.25c.26,1.21-.04,2.47-.06,3.71s.35,2.64,1.44,3.22c.55-2.32.63-4.76.24-7.11"/>
        <path class="cls-4" d="M56.39,58.91c.03.13.05.26.06.39l-.09-.66c.15,1.39-.25,2.77-.07,4.16.12.95.3,1.77.76,2.63.42.78,1.1,1.48,1.88,1.91,1.36.76,3.3.11,3.67-1.49.66-2.8.7-5.61.24-8.44-.1-.58-.66-1.21-1.15-1.49-.54-.31-1.33-.45-1.93-.25s-1.19.57-1.49,1.15c-.33.63-.37,1.23-.25,1.93.03.18.06.36.08.53l-.09-.66c.22,1.61.22,3.24,0,4.85l.09-.66c-.08.58-.19,1.16-.32,1.73l3.67-1.49c-.11-.06-.22-.13-.32-.21l.51.39c-.15-.12-.28-.25-.4-.4l.39.51c-.16-.21-.28-.43-.38-.66l.25.6c-.14-.34-.23-.69-.28-1.05l.09.66c-.1-.74-.03-1.48.03-2.23.09-1.04.08-2.01-.12-3.04-.11-.59-.65-1.2-1.15-1.49-.54-.31-1.33-.45-1.93-.25-1.37.44-2.01,1.7-1.75,3.08h0Z"/>
      </g>
      <g>
        <path class="cls-4" d="M76.04,57.88c.01,2.37.02,4.75.03,7.12,0,.33-.01.7-.25.93-.27.26-.73.22-1.04,0s-.48-.57-.63-.92c-.89-2.07-1.09-4.43-.57-6.62"/>
        <path class="cls-4" d="M73.54,57.88l.02,3.88v1.9c.01.59.06,1.21-.01,1.79l.09-.66c-.01.07-.03.14-.05.21l.25-.6c-.02.07-.06.13-.1.19l.39-.51c-.04.06-.1.11-.16.15l.51-.39-.1.05.6-.25c-.07.03-.14.05-.21.05l.66-.09c-.08,0-.15,0-.23,0l.66.09c-.08-.01-.15-.03-.22-.06l.6.25c-.07-.03-.14-.07-.2-.11l.51.39c-.1-.08-.18-.16-.27-.26l.39.51c-.15-.21-.26-.43-.37-.66l.25.6c-.37-.89-.63-1.81-.76-2.77l.09.66c-.12-.96-.12-1.91,0-2.87l-.09.66c.05-.33.11-.66.19-.99.29-1.27-.39-2.77-1.75-3.08-1.28-.29-2.76.38-3.08,1.75-.68,2.93-.41,6.07.92,8.78.45.92,1.29,1.67,2.28,1.97,1.28.39,2.67-.05,3.49-1.1.63-.81.72-1.77.71-2.76v-2.06c-.02-1.56-.02-3.11-.03-4.67,0-1.31-1.15-2.56-2.5-2.5s-2.51,1.1-2.5,2.5h0Z"/>
      </g>
    </g>
    <path class="cls-2" d="M59.86,1C27.4,1,1,27.4,1,59.86c0,26.82,18.04,49.5,42.62,56.56.7-.13,1.22-.7,1.3-1.37.09-.75-.39-1.47-1.15-1.7-22.98-6.92-39.78-28.28-39.78-53.49C4,29.06,29.06,4,59.86,4s55.86,25.06,55.86,55.86c0,25.36-16.99,46.81-40.17,53.6-.85,0-1.55.7-1.56,1.55,0,.86.7,1.57,1.56,1.57,25.78-8.28,43.17-31.54,43.17-56.72C118.72,27.4,92.32,1,59.86,1Z"/>
    <circle class="cls-1" cx="58.86" cy="117.16" r="3.93"/>
  </g>
</svg>