<?xml version="1.0" encoding="UTF-8"?>
<svg id="Layer_2" data-name="Layer 2" xmlns="http://www.w3.org/2000/svg" viewBox="0 0 119.72 124.67">
  <defs>
    <style>
      .cls-1 {
        fill: #383839;
        stroke-width: 7px;
      }

      .cls-1, .cls-2 {
        stroke: #5d5d5d;
        stroke-miterlimit: 10;
      }

      .cls-2 {
        fill: #5d5d5d;
        stroke-width: 2px;
      }
    </style>
  </defs>
  <g id="Layer_1-2" data-name="Layer 1">
    <path class="cls-2" d="M34.5,88.64c1.4,1.4,3.35,2.28,5.5,2.28s4.09-.87,5.5-2.28c2.76-2.76,3.04-7.15.67-10.23h0c-.2-.28-.43-.53-.67-.77-1.4-1.4-3.35-2.28-5.5-2.28s-4.09.87-5.5,2.28c-.24.24-.46.49-.67.76h0c-2.37,3.09-2.09,7.47.67,10.23h0ZM57.77,64.49c-.72,0-1.31-.59-1.31-1.31s.59-1.31,1.31-1.31h6.12c.72,0,1.31.59,1.31,1.31s-.59,1.31-1.31,1.31h-6.12ZM21.98,76.32h10.18c.16-.18.32-.35.48-.52,1.88-1.88,4.48-3.04,7.34-3.04s5.46,1.16,7.34,3.04c.17.17.33.34.48.52h24.08c.16-.18.32-.35.48-.52,1.88-1.88,4.48-3.04,7.34-3.04s5.46,1.16,7.34,3.04c.17.17.33.34.48.52h10.19v-9.75c0-1.09-.29-1.93-.7-2.56l-.03-.05c-.61-.91-1.47-1.44-2.11-1.69l-8.45-3.3h-28.68c-.72,0-1.31-.59-1.31-1.31v-21.07h-31.19c-.9,0-1.73.37-2.32.97-.6.59-.97,1.42-.97,2.33v36.44h0ZM62.58,33.97v-3.44c0-1.78.73-3.4,1.9-4.57,1.18-1.18,2.8-1.91,4.58-1.91s3.4.73,4.57,1.9c1.18,1.18,1.91,2.8,1.91,4.58v3.44h1.44c1.53,0,2.74.6,3.69,1.55,1.04,1.03,1.72,2.49,2.16,4l4.93,17.16,8.08,3.16c1.01.39,2.37,1.23,3.33,2.68l.03.05c.67,1.03,1.14,2.35,1.14,3.99v13.82c0,1.12-.46,2.13-1.2,2.87-.73.73-1.76,1.2-2.87,1.2h-6.26c-.3,2.34-1.37,4.45-2.96,6.04-1.88,1.88-4.48,3.04-7.34,3.04s-5.46-1.16-7.34-3.04c-1.59-1.59-2.66-3.69-2.96-6.04h-19.13c-.3,2.34-1.37,4.45-2.96,6.04-1.88,1.88-4.48,3.04-7.34,3.04s-5.46-1.16-7.34-3.04c-1.59-1.59-2.66-3.69-2.96-6.04h-6.26c-1.11,0-2.13-.46-2.87-1.2l-.08-.09c-.69-.73-1.12-1.71-1.12-2.78v-40.51c0-1.62.66-3.1,1.73-4.17,1.07-1.07,2.55-1.74,4.17-1.74h37.31ZM72.93,33.97v-3.44c0-1.06-.44-2.03-1.14-2.73-.7-.7-1.67-1.14-2.73-1.14s-2.03.44-2.73,1.14c-.7.7-1.14,1.67-1.14,2.73v3.44h7.74ZM85.9,78.42h0c-.2-.28-.43-.53-.67-.77-1.4-1.4-3.35-2.28-5.5-2.28s-4.09.87-5.5,2.28c-.24.24-.46.49-.67.76h0c-2.37,3.09-2.09,7.47.67,10.23,1.4,1.4,3.35,2.28,5.5,2.28s4.09-.87,5.5-2.28c2.76-2.76,3.04-7.15.67-10.23h0ZM84.96,56.35l-4.63-16.12c-.32-1.13-.81-2.18-1.49-2.87-.48-.48-1.09-.78-1.85-.78h-17.9v19.77h25.88,0ZM34.68,42.41h0c-.41,0-.79.16-1.08.44-.29.29-.45.68-.44,1.08v4.63h-4.63c-.41,0-.8.16-1.08.44-.29.29-.45.68-.44,1.08v7.64c0,.41.16.79.44,1.08s.68.45,1.08.44h4.63v4.63c0,.41.16.79.44,1.08.29.29.67.45,1.08.44h7.66c.41,0,.79-.16,1.08-.44.29-.29.45-.67.44-1.08v-4.63h4.64c.41,0,.79-.16,1.08-.44s.45-.68.44-1.08v-7.64c0-.41-.16-.8-.44-1.08-.29-.29-.67-.45-1.08-.45h-4.64v-4.63c0-.4-.16-.79-.44-1.08-.29-.29-.67-.44-1.08-.44h-7.66Z"/>
    <path class="cls-2" d="M59.86,1C27.4,1,1,27.4,1,59.86c0,26.82,18.04,49.5,42.62,56.56.7-.13,1.22-.7,1.3-1.37.09-.75-.39-1.47-1.15-1.7-22.98-6.92-39.78-28.28-39.78-53.49C4,29.06,29.06,4,59.86,4s55.86,25.06,55.86,55.86c0,25.36-16.99,46.81-40.17,53.6-.85,0-1.55.7-1.56,1.55,0,.86.7,1.57,1.56,1.57,25.78-8.28,43.17-31.54,43.17-56.72C118.72,27.4,92.32,1,59.86,1Z"/>
    <circle class="cls-1" cx="59.86" cy="117.24" r="3.93"/>
  </g>
</svg>